<?xml version="1.0" encoding="UTF-8" standalone="no"?>
<!DOCTYPE svg PUBLIC "-//W3C//DTD SVG 1.1//EN" "http://www.w3.org/Graphics/SVG/1.1/DTD/svg11.dtd">
<svg xmlns="http://www.w3.org/2000/svg" xmlns:xlink="http://www.w3.org/1999/xlink" version="1.1" width="531.69pt" height="623.453pt" viewBox="0 0 531.69 623.453">
<g enable-background="new">
<g id="Layer-1" data-name="Layer 1">
<clipPath id="cp0">
<path transform="matrix(1,0,0,-1,0,623.453)" d="M 0 623.453 L 531.69 623.453 L 531.69 0 L 0 0 Z "/>
</clipPath>
<g clip-path="url(#cp0)">
<path transform="matrix(1,0,0,-1,397.9951,531.9003)" d="M 0 0 C 0 0 -7.208 -18.449 3.85 -24.117 C 3.85 -24.117 69.847 -50.176 80.523 -60.05 L 64.51 -5.604 C 64.51 -5.604 70.917 -.801 113.885 3.47 C 113.885 3.47 81.858 30.067 44.761 41.589 Z " fill="#c62129"/>
<path transform="matrix(1,0,0,-1,101.6719,486.5282)" d="M 0 0 C 0 0 -60.051 -24.555 -73.128 -40.301 L -23.753 -49.255 C -23.753 -49.255 -36.031 -98.748 -40.301 -104.087 C -40.301 -104.087 22.92 -68.793 37.481 -69.359 C 37.481 -69.359 43.161 -57.647 36.393 -44.304 Z " fill="#c62129"/>
<path transform="matrix(1,0,0,-1,264.1284,197.2709)" d="M 0 0 L -13.02 104.388 C -13.02 104.388 -13.267 111.805 -39.955 111.974 C -66.644 112.142 -101.685 103.187 -101.685 103.187 C -101.685 103.187 -124.726 97.677 -119.972 87.295 L -113.927 60.873 L -62.908 -2.353 L -48.496 -15.974 Z " fill="#c62129"/>
<path transform="matrix(1,0,0,-1,209.7612,197.2709)" d="M 0 0 L -12.544 61.459 C -12.544 61.459 -18.768 70.136 -51.952 64.985 C -85.137 59.835 -74.995 45.71 -74.995 45.71 L -34.207 -6.086 Z " fill="#c62129"/>
<path transform="matrix(1,0,0,-1,148.4956,146.7987)" d="M 0 0 C -4.164 0 -6.991 .139 -7.353 .158 L -7.228 2.557 C -6.937 2.54 21.781 1.134 35.401 7.675 C 36.211 8.063 36.695 8.364 36.981 8.575 C 35.235 9.169 29.613 9.549 20.404 8.757 C 12.032 8.037 6.592 6.839 4.383 5.958 C 8.588 5.458 20.909 6.534 23.521 7.57 L 24.406 5.337 C 22.069 4.413 4.504 2.222 1.698 4.343 C 1.204 4.717 .954 5.26 1.013 5.833 C 1.334 8.966 11.964 10.482 20.825 11.203 C 32.705 12.171 39.044 11.488 39.669 9.178 C 40.177 7.302 37.56 6.046 36.441 5.509 C 26.534 .751 9.667 0 0 0 " fill="#ffffff"/>
<path transform="matrix(1,0,0,-1,176.7935,131.62592)" d="M 0 0 C -3.945 0 -8.101 -.275 -12.351 -.818 C -30.529 -3.141 -42.622 -9.266 -42.106 -13.31 C -41.761 -16.004 -34.921 -18.733 -22.515 -18.733 C -18.57 -18.733 -14.415 -18.458 -10.166 -17.915 C 8.013 -15.591 20.106 -9.467 19.589 -5.425 C 19.245 -2.729 12.406 0 0 0 M -22.515 -21.135 C -35.672 -21.135 -43.886 -18.324 -44.489 -13.613 C -45.396 -6.512 -28.764 -.493 -12.656 1.564 C -8.305 2.121 -4.046 2.402 0 2.402 C 13.156 2.402 21.37 -.41 21.972 -5.12 C 22.879 -12.219 6.248 -18.238 -9.86 -20.298 C -14.212 -20.853 -18.469 -21.135 -22.515 -21.135 " fill="#ffffff"/>
<path transform="matrix(1,0,0,-1,424.6064,108.21283)" d="M 0 0 C 0 0 6.496 12.588 -35.317 26.507 C -77.13 40.425 -90.549 40.456 -90.549 40.456 C -90.549 40.456 -116.531 44.222 -126.322 40.456 C -136.113 36.689 -120.966 27.664 -120.966 27.664 C -120.966 27.664 -48.575 -10.267 0 0 " fill="#c62129"/>
<path transform="matrix(1,0,0,-1,295.1611,70.29529)" d="M 0 0 L -19.261 -130.363 C -19.261 -130.363 33.898 -147.224 60.588 -142.95 L 113.699 -64.481 L 128.39 -34.323 Z " fill="#c62129"/>
<path transform="matrix(1,0,0,-1,311.915,67.46863)" d="M 0 0 C -10.475 0 -14.686 -1.934 -15.109 -3.589 C -16.374 -8.543 5.657 -21.533 44.41 -31.436 C 63.578 -36.333 81.975 -39.143 94.883 -39.143 C 105.356 -39.143 109.567 -37.209 109.99 -35.553 C 111.256 -30.599 89.225 -17.609 50.472 -7.707 C 31.307 -2.809 12.91 0 0 0 M 94.883 -42.345 C 81.718 -42.345 63.033 -39.5 43.617 -34.539 C 10.992 -26.203 -20.721 -12.622 -18.211 -2.796 C -17.194 1.185 -11.067 3.203 0 3.203 C 13.166 3.203 31.852 .357 51.265 -4.604 C 83.889 -12.939 115.603 -26.52 113.093 -36.346 C 112.076 -40.326 105.949 -42.345 94.883 -42.345 " fill="#ffffff"/>
<path transform="matrix(1,0,0,-1,332.2422,206.57849)" d="M 0 0 C 0 0 88.251 82.564 96.258 151.421 C 104.265 220.278 117.473 166.634 124.481 151.421 C 131.487 136.208 141.095 80.962 130.687 40.929 C 130.687 40.929 145.899 44.933 157.108 69.753 C 168.317 94.574 169.118 41.73 165.916 22.514 C 162.713 3.298 139.494 -43.891 139.494 -43.891 C 139.494 -43.891 155.507 -43.887 158.71 -39.311 C 161.912 -34.735 173.534 -39.591 151.238 -78.592 C 138.959 -100.066 119.777 -112.151 119.777 -112.151 C 119.777 -112.151 134.689 -116.308 141.095 -112.151 C 147.5 -107.995 136.892 -132.014 119.777 -140.822 C 102.663 -149.629 96.258 -157.636 96.258 -157.636 C 96.258 -157.636 111.271 -160.838 119.777 -157.636 C 128.284 -154.433 117.075 -171.988 100.261 -178.423 C 83.447 -184.858 77.843 -188.116 77.843 -188.116 C 77.843 -188.116 89.052 -189.528 97.859 -186.792 C 106.666 -184.058 81.833 -215.64 63.024 -212.259 Z " fill="#232323"/>
<path transform="matrix(1,0,0,-1,194.9102,206.57849)" d="M 0 0 C 0 0 -88.251 82.564 -96.258 151.421 C -104.265 220.278 -117.473 166.634 -124.479 151.421 C -131.487 136.208 -141.095 80.962 -130.687 40.929 C -130.687 40.929 -145.899 44.933 -157.109 69.753 C -168.318 94.574 -169.119 41.73 -165.916 22.514 C -162.713 3.298 -139.494 -43.891 -139.494 -43.891 C -139.494 -43.891 -155.507 -43.887 -158.71 -39.311 C -161.913 -34.735 -173.535 -39.591 -151.235 -78.592 C -138.959 -100.066 -119.778 -112.151 -119.778 -112.151 C -119.778 -112.151 -134.69 -116.308 -141.095 -112.151 C -147.501 -107.995 -136.892 -132.014 -119.778 -140.822 C -102.664 -149.629 -96.258 -157.636 -96.258 -157.636 C -96.258 -157.636 -111.271 -160.838 -119.778 -157.636 C -128.285 -154.433 -117.076 -171.988 -100.262 -178.422 C -83.448 -184.858 -77.843 -188.114 -77.843 -188.114 C -77.843 -188.114 -89.052 -189.528 -97.859 -186.791 C -106.667 -184.058 -81.833 -215.64 -63.024 -212.259 Z " fill="#232323"/>
<path transform="matrix(1,0,0,-1,264.1284,197.2709)" d="M 0 0 L -131.733 -37.736 L -131.733 -285.884 L 0 -397.538 L 131.138 -285.884 L 131.138 -37.736 Z " fill="#ffffff"/>
<path transform="matrix(1,0,0,-1,133.9971,482.41304)" d="M 0 0 L 130.129 -110.295 L 259.668 -.003 L 259.668 246.2 L 130.13 283.476 L 0 246.199 Z M 130.134 -114.497 L -3.203 -1.484 L -3.203 248.613 L 130.132 286.808 L 130.574 286.681 L 262.87 248.612 L 262.87 -1.481 Z " fill="#232323"/>
<path transform="matrix(1,0,0,-1,264.0986,206.87882)" d="M 0 0 L -119.033 -35.404 L -119.033 -268.228 L 0 -372.984 L 118.498 -268.228 L 118.498 -35.404 Z " fill="#232323"/>
<path transform="matrix(1,0,0,-1,60.9849,593.2811)" d="M 0 0 C -.404 0 -.802 .152 -1.107 .444 C -1.618 .933 -1.749 1.695 -1.429 2.325 C 4.129 13.302 13.338 49.485 15.087 56.463 C 9.933 58.633 -13.148 61.914 -33.792 64.063 C -34.43 64.129 -34.967 64.569 -35.156 65.184 C -35.345 65.797 -35.149 66.465 -34.659 66.878 C -7.253 90.014 32.675 104.737 33.076 104.883 L 34.173 101.874 C 33.793 101.734 -2.861 88.214 -29.655 66.84 C -17.181 65.475 13.923 61.779 17.948 58.488 C 18.425 58.096 18.636 57.465 18.489 56.864 C 18.095 55.267 9.656 21.129 3.386 5.322 C 16.965 12.831 59.277 35.726 75.324 38.556 C 72.539 41.551 66.975 46.787 59.599 50.026 L 60.886 52.96 C 72.417 47.896 79.562 38.593 79.861 38.199 C 80.238 37.702 80.292 37.029 79.999 36.479 C 79.705 35.927 79.104 35.599 78.493 35.633 C 67.805 36.228 22.98 12.728 .786 .207 C .54 .067 .269 0 0 0 " fill="#bc2132"/>
<path transform="matrix(1,0,0,-1,479.2051,594.2772)" d="M 0 0 C -.27 0 -.541 .067 -.787 .207 C -22.982 12.728 -67.763 36.176 -78.497 35.633 C -79.104 35.597 -79.688 35.916 -79.985 36.451 C -80.284 36.985 -80.251 37.646 -79.901 38.147 C -79.596 38.584 -72.316 48.878 -60.757 53.956 L -59.469 51.022 C -67.037 47.699 -72.744 41.809 -75.48 38.582 C -59.555 35.875 -17.013 12.856 -3.388 5.323 C -9.658 21.129 -18.099 55.267 -18.491 56.864 C -18.64 57.465 -18.428 58.096 -17.949 58.488 C -13.926 61.779 17.185 65.477 29.658 66.842 C 3.022 88.149 -31.42 100.826 -31.778 100.957 L -30.684 103.966 C -30.307 103.83 7.249 90.014 34.658 66.878 C 35.147 66.465 35.343 65.797 35.155 65.184 C 34.966 64.569 34.428 64.129 33.79 64.063 C 13.145 61.912 -9.936 58.633 -15.091 56.463 C -13.341 49.485 -4.132 13.302 1.428 2.325 C 1.746 1.695 1.616 .933 1.106 .444 C .8 .152 .401 0 0 0 " fill="#bc2132"/>
<path transform="matrix(1,0,0,-1,399.3896,558.0751)" d="M 0 0 C -.325 .388 -7.917 9.65 -4.241 22.896 L -1.153 22.038 C -4.385 10.399 2.387 2.14 2.455 2.058 Z " fill="#bc2132"/>
<path transform="matrix(1,0,0,-1,141.0581,556.6415)" d="M 0 0 L -2.978 1.18 C -2.943 1.269 .478 10.194 -2.994 19.767 L .017 20.858 C 3.916 10.11 .162 .408 0 0 " fill="#bc2132"/>
<path transform="matrix(1,0,0,-1,221.3984,86.8988)" d="M 0 0 C -7.875 0 -16.729 -.6 -25.605 -1.733 C -58.011 -5.874 -77.079 -14.904 -76.485 -19.555 C -76.167 -22.042 -68.415 -25.742 -48.362 -25.742 C -40.487 -25.742 -31.633 -25.142 -22.757 -24.008 C 9.647 -19.867 28.716 -10.837 28.123 -6.187 C 27.804 -3.7 20.053 0 0 0 M -48.362 -28.944 C -57.427 -28.944 -78.625 -28.068 -79.662 -19.961 C -80.862 -10.563 -53.581 -2.079 -26.012 1.443 C -17.003 2.594 -8.008 3.203 0 3.203 C 9.065 3.203 30.263 2.327 31.299 -5.781 C 32.499 -15.177 5.218 -23.661 -22.351 -27.184 C -31.36 -28.336 -40.354 -28.944 -48.362 -28.944 " fill="#ffffff"/>
<path transform="matrix(1,0,0,-1,394.8467,102.427127)" d="M 0 0 C -30.385 0 -76.073 20.742 -78.091 21.666 L -76.759 24.577 C -76.249 24.344 -25.401 1.265 3.941 3.335 C 7.089 3.558 8.253 4.026 8.645 4.255 C 7.442 6.247 -2.637 11.526 -21.9 17.324 C -40.867 23.031 -52.389 24.387 -55.304 23.606 C -51.083 20.013 -23.768 11.616 -17.558 11.616 L -17.558 8.413 C -23.219 8.413 -55.353 17.268 -58.505 22.461 C -59.175 23.564 -58.886 24.477 -58.653 24.923 C -55.832 30.345 -30.706 23.36 -20.033 20.104 C -7.83 16.382 12.548 9.314 11.924 3.802 C 11.607 1.02 7.612 .384 4.166 .141 C 2.816 .045 1.423 0 0 0 " fill="#ffffff"/>
<path transform="matrix(1,0,0,-1,172.4165,108.68793)" d="M 0 0 C -6.611 0 -11.103 .222 -11.677 .251 L -11.511 3.45 C -11.05 3.425 34.65 1.184 56.359 11.609 C 58.135 12.462 58.959 13.063 59.333 13.406 C 57.153 14.447 47.914 15.242 32.438 13.917 C 17.674 12.653 8.688 10.473 5.89 9.021 C 11.434 7.927 33.104 9.709 37.467 11.436 L 38.646 8.458 C 35.021 7.021 7.111 3.628 2.87 6.839 C 2.172 7.368 1.819 8.129 1.901 8.93 C 2.416 13.949 21.667 16.257 33.096 17.186 C 45.953 18.23 61.528 18.561 62.711 14.195 C 63.367 11.772 60.402 9.998 57.746 8.723 C 42.062 1.191 15.332 0 0 0 " fill="#ffffff"/>
<path transform="matrix(1,0,0,-1,124.9004,305.7611)" d="M 0 0 L 26.829 -19.03 L 108.712 71.229 L 65.537 117.582 L -18.183 21.474 Z " fill="#232323"/>
<path transform="matrix(1,0,0,-1,370.7393,315.6127)" d="M 0 0 L 40.155 31.326 L 52.812 70.607 C 52.812 70.607 29.675 74.865 19.642 114.955 L -9.436 119.182 L -28.498 93.784 L -44.265 109.917 L -67.587 107.112 L -69.282 75.189 L -40.671 60.817 Z " fill="#232323"/>
<path transform="matrix(1,0,0,-1,95.3662,254.79529)" d="M 0 0 L -15.306 -15.345 C -15.306 -15.345 7.844 -67.109 54.846 -78.556 L 67.976 -65.407 C 43.524 -52.317 10.784 -13.344 0 0 " fill="#ffffff"/>
<path transform="matrix(1,0,0,-1,229.415,254.0448)" d="M 0 0 L 14.969 14.992 C 14.969 14.992 -10.51 70.276 -51.905 81.599 L -65.299 68.169 C -55.049 61.092 -21.732 36.338 0 0 " fill="#ffffff"/>
<path transform="matrix(1,0,0,-1,216.5078,257.4974)" d="M 0 0 C -2.063 .045 -3.697 1.754 -3.653 3.815 C -3.609 5.88 -1.897 7.516 .163 7.472 C 2.23 7.426 3.862 5.717 3.819 3.653 C 3.771 1.589 2.063 -.045 0 0 M -23.398 28.561 C -25.465 28.608 -27.101 30.316 -27.054 32.38 C -27.009 34.443 -25.299 36.08 -23.238 36.031 C -21.171 35.989 -19.535 34.278 -19.582 32.214 C -19.626 30.153 -21.336 28.516 -23.398 28.561 M -51.089 54.145 C -53.154 54.192 -54.79 55.899 -54.743 57.962 C -54.699 60.025 -52.988 61.661 -50.925 61.617 C -48.863 61.57 -47.224 59.862 -47.271 57.799 C -47.317 55.737 -49.025 54.101 -51.089 54.145 M -54.689 69.318 L -64.779 59.202 C -54.827 51.659 -24.511 27.059 -.16 -9.63 L 10.574 1.12 C -11.209 37.969 -45.244 62.858 -54.689 69.318 " fill="#ffffff"/>
<path transform="matrix(1,0,0,-1,161.2837,310.5492)" d="M 0 0 C -2.064 .043 -3.7 1.756 -3.655 3.817 C -3.609 5.878 -1.898 7.514 .166 7.47 C 2.227 7.425 3.863 5.714 3.817 3.653 C 3.771 1.59 2.064 -.045 0 0 M -25.565 23.483 C -27.627 23.53 -29.263 25.238 -29.218 27.302 C -29.173 29.367 -27.463 31.002 -25.402 30.957 C -23.338 30.912 -21.703 29.201 -21.748 27.14 C -21.792 25.075 -23.504 23.441 -25.565 23.483 M -50.727 51.113 C -52.789 51.156 -54.426 52.864 -54.379 54.928 C -54.336 56.993 -52.625 58.625 -50.561 58.582 C -48.5 58.538 -46.862 56.827 -46.909 54.763 C -46.953 52.702 -48.666 51.066 -50.727 51.113 M -52.556 69.149 L -63.634 58.043 C -53.036 44.982 -19.332 4.879 4.413 -7.297 L 14.271 2.576 C -15.374 24.112 -43.483 57.823 -52.556 69.149 " fill="#ffffff"/>
<path transform="matrix(1,0,0,-1,124.9004,207.2059)" d="M 0 0 L -10.396 10.758 C -18.794 11.209 -18.173 3.056 -18.173 3.056 L -7.937 -7.755 C -7.031 -7.575 -1.883 -6.217 0 0 " fill="#ffffff"/>
<path transform="matrix(1,0,0,-1,129.7778,205.99552)" d="M 0 0 C -1.204 -.347 -2.322 -.836 -3.361 -1.406 C -3.967 -4.013 -5.265 -6.29 -6.544 -7.572 C -8.953 -9.983 -11.899 -10.521 -12.537 -10.613 C -13.445 -12.125 -13.904 -13.172 -13.904 -13.172 L -12.21 -22.265 L 8.405 -1.603 Z " fill="#ffffff"/>
<path transform="matrix(1,0,0,-1,182.5391,268.0936)" d="M 0 0 C -4.817 4.058 -12.866 9.785 -12.866 9.785 C -9.779 5.992 -4.713 .166 -1.954 -2.99 L -26.186 1.908 L -18.431 11.705 L -28.669 4.4 L -35.386 28.75 C -29.825 23.721 -18.933 16.188 -18.933 16.188 C -23.091 21.343 -29.423 28.391 -32.48 31.759 L -8.179 25.656 L -14.472 15.688 L -5.796 23.416 Z M -33.168 67.436 L -71.613 28.899 C -62.84 17.921 -34.496 -16.206 -4.776 -37.667 L 3.889 -28.993 L 3.901 -29.018 L 24.558 -8.315 L 24.545 -8.31 L 31.423 -1.423 C 6.973 35.626 -23.735 60.319 -33.168 67.436 " fill="#ffffff"/>
<path transform="matrix(1,0,0,-1,221.8369,312.8671)" d="M 0 0 L 2.667 27.612 L -12.651 34.868 L -34.917 12.553 L -27.625 -2.746 L -.02 -.017 L -.15 .113 L -.147 .119 Z " fill="#ffffff"/>
<path transform="matrix(1,0,0,-1,298.4736,413.90223)" d="M 0 0 C .381 -.61 .747 -1.208 1.104 -1.795 C 7.69 -1.647 18.049 -.099 27.998 6.853 C 27.479 7.528 26.953 8.204 26.422 8.881 C 22.343 14.082 17.258 20.002 11.604 26.261 C 9.461 18.364 5.576 6.706 0 0 " fill="#ffffff"/>
<path transform="matrix(1,0,0,-1,307.5088,384.8236)" d="M 0 0 C -.213 .235 -.432 .471 -.647 .706 C -9.898 -5.372 -20.395 -4.483 -28.064 -2.381 C -20.901 -11.68 -15.222 -19.538 -10.855 -26.239 C -5.898 -19.723 -2.099 -8.174 0 0 " fill="#ffffff"/>
<path transform="matrix(1,0,0,-1,310.6553,459.4696)" d="M 0 0 C -.494 -4.051 -1.639 -7.484 -3.659 -9.689 C -3.659 -9.689 16.11 -36.746 34.647 -9.127 C 22.675 -10.634 8.789 -4.707 0 0 " fill="#ffffff"/>
<path transform="matrix(1,0,0,-1,310.8867,451.66304)" d="M 0 0 C .065 -1.451 .068 -2.865 .016 -4.248 C 8.988 -9.158 24.599 -16.148 36.624 -13.255 C 42.617 -.873 35.026 17.173 21.834 36.1 C 19.598 24.565 13.98 7.394 0 0 " fill="#ffffff"/>
<path transform="matrix(1,0,0,-1,330.0684,411.8446)" d="M 0 0 C -.544 .743 -1.095 1.489 -1.654 2.236 C -11.469 -4.702 -21.559 -6.672 -28.611 -7.043 C -26.146 -11.375 -24.38 -15.122 -23.257 -18.394 C -21.521 -23.468 -20.07 -29.933 -19.447 -36.244 C -6.455 -28.328 -1.695 -10.353 0 0 " fill="#ffffff"/>
<path transform="matrix(1,0,0,-1,276.0483,382.7577)" d="M 0 0 C 6.875 -2.583 18.556 -5.222 28.596 1.04 C 24.496 5.456 20.192 9.974 15.816 14.47 C 10.681 4.774 4.613 1.191 0 0 " fill="#ffffff"/>
<path transform="matrix(1,0,0,-1,381.3926,234.53162)" d="M 0 0 L 14.515 25.406 L -10.653 10.034 C -8.526 8.872 -6.509 7.466 -4.673 5.742 C -2.831 4.006 -1.295 2.064 0 0 " fill="#ffffff"/>
<path transform="matrix(1,0,0,-1,396.5391,241.8656)" d="M 0 0 L -12.316 1.442 C -11.284 -1.497 -10.712 -4.582 -10.6 -7.721 Z " fill="#ffffff"/>
<path transform="matrix(1,0,0,-1,342.0723,268.2391)" d="M 0 0 C 3.521 4.377 7.775 10.839 7.775 10.839 C 2.596 6.885 -1.235 2.988 -2.649 1.487 L .466 18.727 C 3.953 17.334 10.199 15.151 10.199 15.151 C 7.672 17.41 3.928 19.576 1.61 20.82 L 22.834 28.553 C 21.052 26.561 18.143 23.102 15.26 18.798 C 15.26 18.798 20.323 22.6 24.363 26.126 L 19.169 6.066 C 17.471 8.108 14.85 11.048 12.351 12.948 C 12.351 12.948 15.988 6.715 17.978 3.67 Z M 32.489 37.154 C 21.305 47.672 2.952 46.39 -8.42 34.295 C -19.792 22.201 -19.945 3.805 -8.761 -6.712 C 2.427 -17.23 20.779 -15.946 32.151 -3.852 C 43.523 8.243 43.674 26.639 32.489 37.154 " fill="#ffffff"/>
<path transform="matrix(1,0,0,-1,321.9648,253.45349)" d="M 0 0 C .141 2.493 .531 4.989 1.241 7.437 C -2.827 7.19 -6.984 8.524 -10.187 11.541 C -16.37 17.352 -16.67 27.074 -10.859 33.256 C -5.045 39.436 4.676 39.736 10.859 33.925 C 13.052 31.861 14.475 29.302 15.162 26.586 C 17.699 28.33 20.395 29.718 23.191 30.707 C 19.391 35.975 .851 64.457 19.842 95.198 C 19.842 95.198 -51.127 72.904 -56.066 -15.043 C -56.066 -15.043 -41.247 12.11 0 0 " fill="#ffffff"/>
<path transform="matrix(1,0,0,-1,447.6035,257.7338)" d="M 0 0 C -27.16 -19.18 -54.342 -6.535 -62.79 -1.69 C -63.516 -4.374 -64.588 -6.998 -65.992 -9.509 C -64.047 -10.188 -62.205 -11.231 -60.604 -12.734 C -54.424 -18.546 -54.123 -28.269 -59.938 -34.449 C -65.748 -40.632 -75.472 -40.932 -81.652 -35.118 C -84.323 -32.61 -85.878 -29.37 -86.331 -26.004 C -88.596 -26.692 -90.897 -27.149 -93.212 -27.344 C -79.91 -66.536 -105.362 -82.543 -105.362 -82.543 C -17.887 -72.204 0 0 0 0 " fill="#ffffff"/>
<path transform="matrix(1,0,0,-1,344.1641,284.28703)" d="M 0 0 L 2.318 -12.878 L 10.015 -.816 C 6.631 -1.081 3.253 -.809 0 0 " fill="#ffffff"/>
<path transform="matrix(1,0,0,-1,363.4238,221.66782)" d="M 0 0 L -2.37 13.167 L -10.349 .663 C -6.861 1.004 -3.362 .801 0 0 " fill="#ffffff"/>
<path transform="matrix(1,0,0,-1,321.9307,254.1195)" d="M 0 0 L -11.964 -8.712 L 1.288 -10.265 C .29 -6.965 -.125 -3.494 0 0 " fill="#ffffff"/>
<path transform="matrix(1,0,0,-1,317.3545,292.1952)" d="M 0 0 L 13.624 -2.796 L 16.854 -2.893 L 21.402 10.55 C 18.547 12.079 16.204 13.854 14.315 15.632 C 11.629 18.157 9.853 20.677 8.776 22.477 L -3.162 16.114 L -3.018 13.217 Z " fill="#ffffff"/>
<path transform="matrix(1,0,0,-1,314.6895,294.9193)" d="M 0 0 L -2.952 12.939 L -16.244 3.972 L -14.48 -15.455 L 4.623 -16.013 L 13.137 -2.696 Z " fill="#ffffff"/>
<path transform="matrix(1,0,0,-1,204.8916,443.2782)" d="M 0 0 C -8.688 5.711 -13.999 17.408 -16.747 25.324 C -25.987 11.721 -33.837 -2.643 -36.045 -15.053 C -18.82 -13.377 -4.992 -3.997 -.069 -.231 C -.047 -.156 -.023 -.078 0 0 " fill="#ffffff"/>
<path transform="matrix(1,0,0,-1,208.7886,390.6468)" d="M 0 0 C -.064 -.075 -.126 -.155 -.189 -.23 C 1.542 -5.298 5.367 -14.564 11.679 -20.256 C 16.845 -12.228 22.998 -3.817 29.545 4.472 C 21.703 .722 9.966 -3.269 0 0 " fill="#ffffff"/>
<path transform="matrix(1,0,0,-1,169.0649,461.5624)" d="M 0 0 C 7.782 -3.571 22.331 -9.398 35.414 -9.945 C 34.032 -7.281 31.521 -.141 34.482 13.143 C 27.754 8.507 15.25 1.43 0 0 " fill="#ffffff"/>
<path transform="matrix(1,0,0,-1,191.1147,413.67219)" d="M 0 0 C -.227 -.319 -.451 -.64 -.677 -.959 C 1.601 -8.093 6.554 -20.445 14.796 -26.391 C 16.038 -22.722 17.633 -18.709 19.694 -14.31 C 21.512 -10.437 23.763 -6.327 26.328 -2.079 C 20.093 -2.732 8.152 -3.354 0 0 " fill="#ffffff"/>
<path transform="matrix(1,0,0,-1,206.2241,393.81044)" d="M 0 0 C -4.274 -5.306 -8.817 -11.133 -13.22 -17.219 C -5.709 -20.021 5.584 -19.318 11.269 -18.709 C 5.59 -13.18 1.967 -5.309 0 0 " fill="#ffffff"/>
<path transform="matrix(1,0,0,-1,168.2363,464.72743)" d="M 0 0 C -.033 -5.217 1.21 -9.945 4.136 -13.934 C 12.493 -25.333 28.711 -14.534 34.704 -9.902 C 21.64 -9.039 7.816 -3.578 0 0 " fill="#ffffff"/>
<path transform="matrix(1,0,0,-1,244.4185,378.6385)" d="M 0 0 C 17.023 20.65 35.355 39.464 45.238 48.04 C 53.764 55.435 59.497 61.062 63.191 64.949 L 52.954 65.246 L 51.94 76.424 C 35.136 61.326 -2.724 26.921 -16.742 10.998 C -14.603 6.361 -9.54 -1.395 0 0 " fill="#ffffff"/>
<path transform="matrix(1,0,0,-1,225.4526,370.2518)" d="M 0 0 C -.371 -.457 -.713 -.89 -1.023 -1.298 C -3.785 -4.938 -8.676 -10.673 -14.458 -17.699 C -4.573 -20.227 7.422 -15.209 14.293 -11.594 C 6.855 -10.506 2.361 -4.476 0 0 " fill="#ffffff"/>
<path transform="matrix(1,0,0,-1,273.7871,379.9476)" d="M 0 0 C 4.041 .613 10.39 3.445 15.726 14.07 C .422 29.683 -15.395 44.74 -25.834 53.958 C -38.17 64.853 -44.932 71.897 -48.261 75.644 L -49.359 64.429 L -59.353 63.442 C -51.12 56.126 -28.315 35.186 -8.517 10.667 C -5.502 6.931 -2.665 3.381 0 0 " fill="#ffffff"/>
<path transform="matrix(1,0,0,-1,90.0181,463.8378)" d="M 0 0 C 0 0 172.143 81.954 366.706 0 C 366.706 0 350.692 -62.737 329.074 -77.95 C 329.074 -77.95 182.515 -29.109 31.209 -77.95 C 31.209 -77.95 -.8 -32.541 0 0 " fill="#c62129"/>
<path transform="matrix(1,0,0,-1,265.6982,518.4794)" d="M 0 0 C 82.316 0 145.385 -19.094 153.109 -21.535 C 171.973 -7.337 186.684 44.681 189.12 53.704 C 132.313 77.433 71.88 89.465 9.481 89.465 C -91.279 89.465 -165.183 57.622 -174.093 53.607 C -174.197 24.63 -148.334 -14.774 -143.826 -21.42 C -99.358 -7.207 -50.973 0 0 0 M -145.101 -25.194 L -145.78 -24.231 C -147.099 -22.359 -178.085 21.986 -177.281 54.681 L -177.256 55.665 L -176.368 56.088 C -175.6 56.453 -98.277 92.667 9.481 92.667 C 72.781 92.667 134.07 80.37 191.646 56.117 L 192.918 55.582 L 192.576 54.246 C 191.917 51.66 176.166 -9.242 154.315 -24.618 L 153.654 -25.084 L 152.888 -24.828 C 152.238 -24.611 86.948 -3.203 0 -3.203 C -51.075 -3.203 -99.517 -10.48 -143.979 -24.833 Z " fill="#ffffff"/>
<path transform="matrix(1,0,0,-1,163.7417,474.6776)" d="M 0 0 C -4.931 -1.027 -9.851 -2.127 -14.758 -3.3 C -15.757 .911 -16.755 5.121 -17.752 9.332 C -17.997 10.368 -18.887 10.705 -20.421 10.332 C -22.025 9.941 -22.701 9.222 -22.446 8.189 C -18.818 -6.531 -15.18 -21.248 -11.532 -35.964 C -11.274 -36.999 -10.418 -37.329 -8.959 -36.975 C -7.566 -36.637 -6.994 -35.953 -7.241 -34.914 C -8.491 -29.667 -9.74 -24.42 -10.988 -19.172 C -6.234 -18.036 -1.469 -16.972 3.306 -15.978 C 4.431 -21.408 5.558 -26.839 6.686 -32.27 C 7.316 -35.315 6.213 -38.079 3.441 -40.604 C .667 -43.128 -2.674 -44.854 -6.636 -45.816 C -18.042 -48.616 -24.774 -46.552 -26.947 -38.971 C -30.769 -25.437 -34.582 -11.901 -38.386 1.637 C -40.712 9.78 -35.403 15.833 -22.324 19.04 C -10.606 21.866 -3.934 19.201 -2.402 11.638 C -1.603 7.759 -.802 3.879 0 0 " fill="#ffffff"/>
<path transform="matrix(1,0,0,-1,195.25,501.6122)" d="M 0 0 C .197 -1.296 -.53 -2.069 -2.181 -2.333 C -3.898 -2.607 -4.863 -2.107 -5.077 -.812 C -7.494 13.875 -9.901 28.563 -12.298 43.254 C -12.508 44.546 -11.671 45.351 -9.779 45.652 C -7.959 45.94 -6.953 45.433 -6.755 44.137 C -4.514 29.423 -2.262 14.711 0 0 M -11.099 54.561 C -24.241 52.439 -29.939 46.857 -28.277 38.546 C -25.58 24.746 -22.873 10.948 -20.158 -2.849 C -18.604 -10.58 -12.166 -13.209 -.769 -11.365 C 4.312 -10.554 8.284 -8.96 11.204 -6.496 C 14.122 -4.038 15.383 -.937 14.924 2.847 C 13.222 16.806 11.529 30.766 9.845 44.728 C 8.872 53.082 1.867 56.6 -11.099 54.561 " fill="#ffffff"/>
<path transform="matrix(1,0,0,-1,213.541,483.32313)" d="M 0 0 C 4.825 .54 9.655 1.01 14.489 1.409 C 14.897 -3.586 15.306 -8.581 15.717 -13.576 C 15.84 -15.065 16.874 -15.726 18.815 -15.578 C 20.689 -15.433 21.577 -14.626 21.474 -13.136 C 21.292 -10.552 21.111 -7.968 20.931 -5.384 C 20.763 -3.017 18.841 -.349 15.06 2.559 C 7.769 7.923 3.011 11.416 1.105 13.272 C -.805 15.12 -1.907 17.245 -2.175 19.669 C -2.444 22.108 -2.713 24.547 -2.981 26.985 C -3.947 35.402 2.223 40.495 15.566 41.519 C 27.519 42.385 33.641 38.664 33.916 30.951 C 34.065 27.176 34.215 23.401 34.365 19.626 C 29.359 19.419 24.355 19.141 19.355 18.788 C 19.078 22.801 18.802 26.813 18.527 30.827 C 18.438 32.131 17.532 32.728 15.812 32.598 C 13.795 32.445 12.89 31.1 13.089 28.58 C 13.309 27.177 13.527 25.773 13.745 24.369 C 13.935 21.938 16.039 19.271 19.96 16.31 C 27.219 11.038 31.665 7.198 33.591 5 C 35.514 2.799 36.512 .239 36.622 -2.652 C 36.727 -5.438 36.832 -8.225 36.938 -11.01 C 37.235 -19.743 31.54 -24.214 19.876 -25.077 C 8.625 -25.952 2.562 -22.747 1.651 -14.854 C 1.1 -9.902 .549 -4.951 0 0 " fill="#ffffff"/>
<path transform="matrix(1,0,0,-1,276.2949,469.52143)" d="M 0 0 C -.038 -2.316 -1.858 -3.439 -5.466 -3.425 C -5.434 4.132 -5.399 11.688 -5.362 19.244 C -1.59 19.231 .277 18.037 .24 15.723 C .159 10.481 .079 5.241 0 0 M 11.937 25.998 C 8.524 27.639 3.196 28.562 -4.001 28.606 C -10.045 28.641 -16.091 28.573 -22.135 28.404 C -21.568 6.563 -20.979 -15.275 -20.368 -37.114 C -15.441 -36.976 -10.514 -36.914 -5.586 -36.929 C -5.562 -28.885 -5.533 -20.84 -5.501 -12.795 C 3.126 -12.951 8.771 -12.331 11.484 -10.645 C 14.189 -8.961 15.664 -5.987 15.864 -1.695 C 16.143 4.361 16.423 10.418 16.706 16.475 C 16.93 21.159 15.351 24.348 11.937 25.998 " fill="#ffffff"/>
<path transform="matrix(1,0,0,-1,323.5156,509.5546)" d="M 0 0 C -9.428 1.084 -18.882 1.884 -28.351 2.4 C -27.157 24.215 -25.942 46.028 -24.705 67.841 C -18.962 67.527 -13.224 67.121 -7.491 66.624 C -9.178 47.654 -10.847 28.683 -12.499 9.71 C -8.007 9.321 -3.519 8.869 .963 8.355 C .642 5.57 .32 2.785 0 0 " fill="#ffffff"/>
<path transform="matrix(1,0,0,-1,349.6436,486.2343)" d="M 0 0 C 1.769 6.318 3.567 12.631 5.396 18.937 C 5.103 12.375 4.782 5.817 4.434 -.738 C 2.956 -.485 1.479 -.239 0 0 M 19.424 36.035 C 12.235 37.387 5.024 38.592 -2.204 39.649 C -9.673 18.661 -16.607 -2.458 -23.007 -23.687 C -18.031 -24.294 -13.063 -24.979 -8.105 -25.742 C -6.356 -20.075 -4.575 -14.417 -2.761 -8.766 C -.458 -9.134 1.842 -9.519 4.139 -9.919 C 4.001 -15.85 3.833 -21.776 3.635 -27.7 C 8.577 -28.588 13.508 -29.555 18.426 -30.601 C 19.259 -8.443 19.593 13.774 19.424 36.035 " fill="#ffffff"/>
<path transform="matrix(1,0,0,-1,423.1787,463.287)" d="M 0 0 C -6.163 -7.354 -12.154 -14.803 -17.972 -22.338 C -20.878 -26.105 -23.741 -29.896 -26.561 -33.706 C -28.767 -42.059 -30.969 -50.411 -33.168 -58.765 C -38.088 -57.471 -43.023 -56.258 -47.974 -55.125 C -46.08 -46.869 -44.185 -38.614 -42.285 -30.359 C -42.07 -28.034 -42.384 -23.315 -43.373 -16.2 C -44.26 -10.173 -45.491 -.845 -47.407 11.785 C -42.007 10.699 -36.619 9.53 -31.246 8.277 C -30.486 .146 -29.835 -7.979 -29.295 -16.095 C -24.67 -9.262 -19.924 -2.482 -15.057 4.238 C -10.021 2.899 -5.002 1.486 0 0 " fill="#ffffff"/>
<path transform="matrix(1,0,0,-1,237.6963,542.3798)" d="M 0 0 L 5.248 0 L 5.248 -4.352 C 5.248 -5.048 5.542 -5.396 6.132 -5.396 C 6.72 -5.396 7.015 -4.729 7.015 -3.396 C 7.015 -1.663 6.652 -.543 5.928 -.036 C 3.192 1.344 1.541 2.308 .976 2.856 C .411 3.404 .13 4.227 .13 5.323 L .13 8.082 C .13 10.972 2.166 12.415 6.241 12.415 C 10.206 12.415 12.188 11.03 12.188 8.259 L 12.188 4.209 L 7.07 4.209 L 7.181 6.667 C 7.181 8.377 6.856 9.231 6.205 9.231 C 5.555 9.231 5.229 8.695 5.229 7.622 C 5.229 6.514 5.373 5.677 5.661 5.111 C 5.95 4.545 7.555 3.572 10.476 2.193 C 11.691 1.355 12.299 .247 12.299 -1.133 L 12.299 -4.21 C 12.299 -7.099 10.228 -8.543 6.085 -8.543 C 2.028 -8.543 0 -7.158 0 -4.387 Z " fill="#ffffff"/>
<path transform="matrix(1,0,0,-1,263.418,550.6405)" d="M 0 0 L -5.247 0 L -5.247 16.556 C -5.247 17.181 -5.542 17.492 -6.13 17.492 C -6.732 17.492 -7.033 17.192 -7.033 16.591 L -7.033 0 L -12.279 0 L -12.279 25.363 L -7.033 25.363 L -7.033 19.915 C -6.409 20.423 -5.325 20.676 -3.783 20.676 C -2.754 20.676 -1.867 20.417 -1.12 19.898 C -.374 19.379 0 18.689 0 17.828 Z " fill="#ffffff"/>
<path transform="matrix(1,0,0,-1,271.6118,546.7313)" d="M 0 0 L 0 12.575 C 0 13.248 -.3 13.583 -.902 13.583 C -1.515 13.583 -1.823 13.248 -1.823 12.575 L -1.823 0 C -1.823 -.696 -1.515 -1.044 -.902 -1.044 C -.3 -1.044 0 -.696 0 0 M -7.07 .142 L -7.07 12.434 C -7.07 15.323 -4.99 16.767 -.829 16.767 C .779 16.767 2.194 16.431 3.416 15.759 C 4.637 15.087 5.247 14.037 5.247 12.61 L 5.247 -.035 C 5.247 -2.807 3.222 -4.191 -.829 -4.191 C -4.99 -4.191 -7.07 -2.747 -7.07 .142 " fill="#ffffff"/>
<path transform="matrix(1,0,0,-1,284.9966,546.80166)" d="M 0 0 L 0 12.717 C 0 13.342 -.3 13.653 -.902 13.653 C -1.515 13.653 -1.822 13.342 -1.822 12.717 L -1.822 -.036 C -1.822 -.638 -1.515 -.937 -.902 -.937 C -.3 -.937 0 -.626 0 0 M -1.822 -3.36 L -1.822 -8.189 L -7.07 -8.189 L -7.07 16.696 L -3.098 16.696 L -2.654 15.864 C -1.792 16.513 -.771 16.837 .411 16.837 C 1.604 16.837 2.708 16.548 3.723 15.971 C 4.74 15.394 5.247 14.562 5.247 13.477 L 5.247 -1.273 C 5.247 -2.135 4.877 -2.824 4.139 -3.344 C 3.401 -3.862 2.503 -4.121 1.445 -4.121 C -.021 -4.121 -1.109 -3.867 -1.822 -3.36 " fill="#ffffff"/>
<path transform="matrix(1,0,0,-1,208.583,199.38422)" d="M 0 0 L -12.188 62.255 L -9.831 62.717 L 2.357 .461 Z " fill="#ffffff"/>
</g>
</g>
</g>
</svg>
